<svg width="48" height="48" viewBox="0 0 48 48" fill="none" xmlns="http://www.w3.org/2000/svg">
<ellipse cx="23.9999" cy="22.9334" rx="17.0667" ry="17.0667" fill="#FFED49"/>
<path d="M11.9358 37.893C11.9358 37.5705 11.6743 37.309 11.3518 37.309C11.0293 37.309 10.7677 37.5705 10.7677 37.893C10.7677 38.2155 11.0293 38.4771 11.3518 38.4771C11.6743 38.4771 11.9358 38.2155 11.9358 37.893Z" fill="#191A1C"/>
<path d="M14.4655 33.5117C14.4655 33.1892 14.2039 32.9276 13.8814 32.9276C13.5589 32.9276 13.2974 33.1892 13.2974 33.5117C13.2974 33.8342 13.5589 34.0958 13.8814 34.0958C14.2039 34.0958 14.4655 33.8342 14.4655 33.5117Z" fill="#191A1C"/>
<path d="M19.5239 33.5117C19.5239 33.1892 19.2623 32.9276 18.9398 32.9276C18.6173 32.9276 18.3557 33.1892 18.3557 33.5117C18.3557 33.8342 18.6173 34.0958 18.9398 34.0958C19.2623 34.0958 19.5239 33.8342 19.5239 33.5117Z" fill="#191A1C"/>
<path d="M22.0534 37.893C22.0534 37.5705 21.7918 37.309 21.4693 37.309C21.1468 37.309 20.8853 37.5705 20.8853 37.893C20.8853 38.2155 21.1468 38.4771 21.4693 38.4771C21.7918 38.4771 22.0534 38.2155 22.0534 37.893Z" fill="#191A1C"/>
<path d="M19.5239 42.2738C19.5239 41.9513 19.2623 41.6897 18.9398 41.6897C18.6173 41.6897 18.3557 41.9513 18.3557 42.2738C18.3557 42.5963 18.6173 42.8578 18.9398 42.8578C19.2623 42.8578 19.5239 42.5963 19.5239 42.2738Z" fill="#191A1C"/>
<path d="M14.4655 42.2738C14.4655 41.9513 14.2039 41.6897 13.8814 41.6897C13.5589 41.6897 13.2974 41.9513 13.2974 42.2738C13.2974 42.5963 13.5589 42.8578 13.8814 42.8578C14.2039 42.8578 14.4655 42.5963 14.4655 42.2738Z" fill="#191A1C"/>
<path d="M17.2865 37.8931C17.2865 37.4092 16.8942 37.017 16.4104 37.017C15.9265 37.017 15.5343 37.4092 15.5343 37.8931C15.5343 38.3769 15.9266 38.7691 16.4104 38.7691C16.8942 38.7691 17.2865 38.3769 17.2865 37.8931Z" fill="#191A1C"/>
<path d="M19.67 36.4328C19.67 36.0295 19.3432 35.7026 18.9398 35.7026C18.5366 35.7026 18.2097 36.0294 18.2097 36.4328C18.2097 36.8361 18.5365 37.1629 18.9398 37.1629C19.3431 37.1629 19.67 36.8361 19.67 36.4328Z" fill="#191A1C"/>
<path d="M17.1405 34.9726C17.1405 34.5693 16.8137 34.2424 16.4104 34.2424C16.0071 34.2424 15.6803 34.5692 15.6803 34.9726C15.6803 35.3758 16.0071 35.7027 16.4104 35.7027C16.8137 35.7027 17.1405 35.3759 17.1405 34.9726Z" fill="#191A1C"/>
<path d="M14.6115 36.4328C14.6115 36.0295 14.2847 35.7026 13.8814 35.7026C13.478 35.7026 13.1512 36.0294 13.1512 36.4328C13.1512 36.8361 13.478 37.1629 13.8814 37.1629C14.2847 37.1629 14.6115 36.8361 14.6115 36.4328Z" fill="#191A1C"/>
<path d="M19.67 39.3533C19.67 38.95 19.3432 38.6232 18.9398 38.6232C18.5366 38.6232 18.2097 38.95 18.2097 39.3533C18.2097 39.7566 18.5365 40.0834 18.9398 40.0834C19.3431 40.0834 19.67 39.7566 19.67 39.3533Z" fill="#191A1C"/>
<path d="M17.1405 40.8135C17.1405 40.4102 16.8137 40.0834 16.4104 40.0834C16.0071 40.0834 15.6803 40.4102 15.6803 40.8135C15.6803 41.2168 16.0071 41.5436 16.4104 41.5436C16.8137 41.5436 17.1405 41.2168 17.1405 40.8135Z" fill="#191A1C"/>
<path d="M14.6115 39.3533C14.6115 38.95 14.2847 38.6232 13.8814 38.6232C13.478 38.6232 13.1512 38.95 13.1512 39.3533C13.1512 39.7566 13.478 40.0834 13.8814 40.0834C14.2847 40.0834 14.6115 39.7566 14.6115 39.3533Z" fill="#191A1C"/>
<path d="M11.7898 40.8135C11.7898 40.5716 11.5937 40.3755 11.3518 40.3755C11.1098 40.3755 10.9137 40.5716 10.9137 40.8135C10.9137 41.0555 11.1098 41.2516 11.3518 41.2516C11.5937 41.2516 11.7898 41.0555 11.7898 40.8135Z" fill="#191A1C"/>
<path d="M16.8489 43.7341C16.8489 43.4922 16.6528 43.296 16.4108 43.296C16.1689 43.296 15.9728 43.4922 15.9728 43.7341C15.9728 43.976 16.1689 44.1721 16.4108 44.1721C16.6528 44.1721 16.8489 43.976 16.8489 43.7341Z" fill="#191A1C"/>
<path d="M11.7898 34.9725C11.7898 34.7306 11.5937 34.5344 11.3518 34.5344C11.1098 34.5344 10.9137 34.7306 10.9137 34.9725C10.9137 35.2144 11.1098 35.4105 11.3518 35.4105C11.5937 35.4105 11.7898 35.2144 11.7898 34.9725Z" fill="#191A1C"/>
<path d="M16.8489 32.0515C16.8489 31.8095 16.6528 31.6134 16.4108 31.6134C16.1689 31.6134 15.9728 31.8095 15.9728 32.0515C15.9728 32.2934 16.1689 32.4895 16.4108 32.4895C16.6528 32.4895 16.8489 32.2934 16.8489 32.0515Z" fill="#191A1C"/>
<path d="M21.9072 34.9725C21.9072 34.7306 21.7111 34.5344 21.4692 34.5344C21.2273 34.5344 21.0311 34.7306 21.0311 34.9725C21.0311 35.2144 21.2273 35.4105 21.4692 35.4105C21.7111 35.4105 21.9072 35.2144 21.9072 34.9725Z" fill="#191A1C"/>
<path d="M21.9072 40.8135C21.9072 40.5716 21.7111 40.3755 21.4692 40.3755C21.2273 40.3755 21.0311 40.5716 21.0311 40.8135C21.0311 41.0555 21.2273 41.2516 21.4692 41.2516C21.7111 41.2516 21.9072 41.0555 21.9072 40.8135Z" fill="#191A1C"/>
<path d="M11.6438 43.7341C11.6438 43.5727 11.5131 43.442 11.3517 43.442C11.1904 43.442 11.0597 43.5727 11.0597 43.7341C11.0597 43.8954 11.1904 44.0261 11.3517 44.0261C11.5131 44.0261 11.6438 43.8954 11.6438 43.7341Z" fill="#191A1C"/>
<path d="M14.1734 45.1943C14.1734 45.0329 14.0428 44.9022 13.8814 44.9022C13.72 44.9022 13.5894 45.0329 13.5894 45.1943C13.5894 45.3556 13.72 45.4863 13.8814 45.4863C14.0428 45.4863 14.1734 45.3556 14.1734 45.1943Z" fill="#191A1C"/>
<path d="M9.11496 36.4328C9.11496 36.2714 8.98429 36.1407 8.82292 36.1407C8.66156 36.1407 8.53088 36.2717 8.53088 36.4328C8.53088 36.5941 8.66156 36.7248 8.82292 36.7248C8.98429 36.7248 9.11496 36.5941 9.11496 36.4328Z" fill="#191A1C"/>
<path d="M9.11496 39.3533C9.11496 39.192 8.98429 39.0613 8.82292 39.0613C8.66156 39.0613 8.53088 39.1922 8.53088 39.3533C8.53088 39.5147 8.66156 39.6454 8.82292 39.6454C8.98429 39.6454 9.11496 39.5147 9.11496 39.3533Z" fill="#191A1C"/>
<path d="M21.7612 43.7341C21.7612 43.5727 21.6305 43.442 21.4692 43.442C21.3078 43.442 21.1771 43.5727 21.1771 43.7341C21.1771 43.8954 21.3078 44.0261 21.4692 44.0261C21.6305 44.0261 21.7612 43.8954 21.7612 43.7341Z" fill="#191A1C"/>
<path d="M19.2317 45.1943C19.2317 45.0329 19.101 44.9022 18.9396 44.9022C18.7783 44.9022 18.6476 45.0329 18.6476 45.1943C18.6476 45.3556 18.7783 45.4863 18.9396 45.4863C19.101 45.4863 19.2317 45.3556 19.2317 45.1943Z" fill="#191A1C"/>
<path d="M14.1734 30.5918C14.1734 30.4305 14.0428 30.2998 13.8814 30.2998C13.72 30.2998 13.5894 30.4305 13.5894 30.5918C13.5894 30.7532 13.72 30.8839 13.8814 30.8839C14.0428 30.8839 14.1734 30.7532 14.1734 30.5918Z" fill="#191A1C"/>
<path d="M11.6438 32.0514C11.6438 31.8901 11.5131 31.7594 11.3517 31.7594C11.1904 31.7594 11.0597 31.8901 11.0597 32.0514C11.0597 32.2128 11.1904 32.3435 11.3517 32.3435C11.5131 32.3435 11.6438 32.2128 11.6438 32.0514Z" fill="#191A1C"/>
<path d="M21.7612 32.0514C21.7612 31.8901 21.6305 31.7594 21.4692 31.7594C21.3078 31.7594 21.1771 31.8901 21.1771 32.0514C21.1771 32.2128 21.3078 32.3435 21.4692 32.3435C21.6305 32.3435 21.7612 32.2128 21.7612 32.0514Z" fill="#191A1C"/>
<path d="M19.2317 30.5918C19.2317 30.4305 19.101 30.2998 18.9396 30.2998C18.7783 30.2998 18.6476 30.4305 18.6476 30.5918C18.6476 30.7532 18.7783 30.8839 18.9396 30.8839C19.101 30.8839 19.2317 30.7532 19.2317 30.5918Z" fill="#191A1C"/>
<path d="M24.2907 39.3533C24.2907 39.192 24.1601 39.0613 23.9987 39.0613C23.8373 39.0613 23.7067 39.192 23.7067 39.3533C23.7067 39.5147 23.8373 39.6454 23.9987 39.6454C24.1601 39.6454 24.2907 39.5147 24.2907 39.3533Z" fill="#191A1C"/>
<path d="M24.2907 36.4328C24.2907 36.2714 24.1601 36.1407 23.9987 36.1407C23.8373 36.1407 23.7067 36.2714 23.7067 36.4328C23.7067 36.5941 23.8373 36.7248 23.9987 36.7248C24.1601 36.7248 24.2907 36.5941 24.2907 36.4328Z" fill="#191A1C"/>
<path d="M27.1118 37.893C27.1118 37.5705 26.8502 37.309 26.5277 37.309C26.2052 37.309 25.9436 37.5705 25.9436 37.893C25.9436 38.2155 26.2052 38.4771 26.5277 38.4771C26.8502 38.4771 27.1118 38.2155 27.1118 37.893Z" fill="#191A1C"/>
<path d="M29.6413 33.5117C29.6413 33.1892 29.3797 32.9276 29.0572 32.9276C28.7347 32.9276 28.4731 33.1892 28.4731 33.5117C28.4731 33.8342 28.7347 34.0958 29.0572 34.0958C29.3797 34.0958 29.6413 33.8342 29.6413 33.5117Z" fill="#191A1C"/>
<path d="M34.6995 33.5117C34.6995 33.1892 34.4379 32.9276 34.1154 32.9276C33.793 32.9276 33.5314 33.1892 33.5314 33.5117C33.5314 33.8342 33.793 34.0958 34.1154 34.0958C34.4379 34.0958 34.6995 33.8342 34.6995 33.5117Z" fill="#191A1C"/>
<path d="M37.2293 37.893C37.2293 37.5705 36.9677 37.309 36.6452 37.309C36.3227 37.309 36.0612 37.5705 36.0612 37.893C36.0612 38.2155 36.3227 38.4771 36.6452 38.4771C36.9677 38.4771 37.2293 38.2155 37.2293 37.893Z" fill="#191A1C"/>
<path d="M34.6995 42.2738C34.6995 41.9513 34.4379 41.6897 34.1154 41.6897C33.793 41.6897 33.5314 41.9513 33.5314 42.2738C33.5314 42.5963 33.793 42.8578 34.1154 42.8578C34.4379 42.8578 34.6995 42.5963 34.6995 42.2738Z" fill="#191A1C"/>
<path d="M29.6413 42.2738C29.6413 41.9513 29.3797 41.6897 29.0572 41.6897C28.7347 41.6897 28.4731 41.9513 28.4731 42.2738C28.4731 42.5963 28.7347 42.8578 29.0572 42.8578C29.3797 42.8578 29.6413 42.5963 29.6413 42.2738Z" fill="#191A1C"/>
<path d="M32.4624 37.8931C32.4624 37.4092 32.0701 37.017 31.5863 37.017C31.1024 37.017 30.7102 37.4092 30.7102 37.8931C30.7102 38.3769 31.1025 38.7691 31.5863 38.7691C32.0701 38.7691 32.4624 38.3769 32.4624 37.8931Z" fill="#191A1C"/>
<path d="M34.8456 36.4328C34.8456 36.0295 34.5188 35.7026 34.1155 35.7026C33.7122 35.7026 33.3854 36.0294 33.3854 36.4328C33.3854 36.8361 33.7122 37.1629 34.1155 37.1629C34.5188 37.1629 34.8456 36.8361 34.8456 36.4328Z" fill="#191A1C"/>
<path d="M32.3168 34.9726C32.3168 34.5693 31.99 34.2424 31.5867 34.2424C31.1834 34.2424 30.8566 34.5692 30.8566 34.9726C30.8566 35.3758 31.1834 35.7027 31.5867 35.7027C31.99 35.7027 32.3168 35.3759 32.3168 34.9726Z" fill="#191A1C"/>
<path d="M29.7874 36.4328C29.7874 36.0295 29.4606 35.7026 29.0573 35.7026C28.654 35.7026 28.3271 36.0294 28.3271 36.4328C28.3271 36.8361 28.654 37.1629 29.0573 37.1629C29.4606 37.1629 29.7874 36.8361 29.7874 36.4328Z" fill="#191A1C"/>
<path d="M34.8456 39.3533C34.8456 38.95 34.5188 38.6232 34.1155 38.6232C33.7122 38.6232 33.3854 38.95 33.3854 39.3533C33.3854 39.7566 33.7122 40.0834 34.1155 40.0834C34.5188 40.0834 34.8456 39.7566 34.8456 39.3533Z" fill="#191A1C"/>
<path d="M32.3168 40.8135C32.3168 40.4102 31.99 40.0834 31.5867 40.0834C31.1834 40.0834 30.8566 40.4102 30.8566 40.8135C30.8566 41.2168 31.1834 41.5436 31.5867 41.5436C31.99 41.5436 32.3168 41.2168 32.3168 40.8135Z" fill="#191A1C"/>
<path d="M29.7874 39.3533C29.7874 38.95 29.4606 38.6232 29.0573 38.6232C28.654 38.6232 28.3271 38.95 28.3271 39.3533C28.3271 39.7566 28.654 40.0834 29.0573 40.0834C29.4606 40.0834 29.7874 39.7566 29.7874 39.3533Z" fill="#191A1C"/>
<path d="M26.9657 40.8135C26.9657 40.5716 26.7696 40.3755 26.5277 40.3755C26.2857 40.3755 26.0896 40.5716 26.0896 40.8135C26.0896 41.0555 26.2857 41.2516 26.5277 41.2516C26.7696 41.2516 26.9657 41.0555 26.9657 40.8135Z" fill="#191A1C"/>
<path d="M32.0247 43.7341C32.0247 43.4922 31.8285 43.296 31.5866 43.296C31.3447 43.296 31.1486 43.4922 31.1486 43.7341C31.1486 43.976 31.3447 44.1721 31.5866 44.1721C31.8285 44.1721 32.0247 43.976 32.0247 43.7341Z" fill="#191A1C"/>
<path d="M26.9657 34.9725C26.9657 34.7306 26.7696 34.5344 26.5277 34.5344C26.2857 34.5344 26.0896 34.7306 26.0896 34.9725C26.0896 35.2144 26.2857 35.4105 26.5277 35.4105C26.7696 35.4105 26.9657 35.2144 26.9657 34.9725Z" fill="#191A1C"/>
<path d="M32.0247 32.0515C32.0247 31.8095 31.8285 31.6134 31.5866 31.6134C31.3447 31.6134 31.1486 31.8095 31.1486 32.0515C31.1486 32.2934 31.3447 32.4895 31.5866 32.4895C31.8285 32.4895 32.0247 32.2934 32.0247 32.0515Z" fill="#191A1C"/>
<path d="M37.083 34.9725C37.083 34.7306 36.8869 34.5344 36.645 34.5344C36.403 34.5344 36.2069 34.7306 36.2069 34.9725C36.2069 35.2144 36.403 35.4105 36.645 35.4105C36.8869 35.4105 37.083 35.2144 37.083 34.9725Z" fill="#191A1C"/>
<path d="M37.083 40.8135C37.083 40.5716 36.8869 40.3755 36.645 40.3755C36.403 40.3755 36.2069 40.5716 36.2069 40.8135C36.2069 41.0555 36.403 41.2516 36.645 41.2516C36.8869 41.2516 37.083 41.0555 37.083 40.8135Z" fill="#191A1C"/>
<path d="M26.8195 43.7341C26.8195 43.5727 26.6889 43.442 26.5275 43.442C26.3661 43.442 26.2355 43.5727 26.2355 43.7341C26.2355 43.8954 26.3661 44.0261 26.5275 44.0261C26.6889 44.0261 26.8195 43.8954 26.8195 43.7341Z" fill="#191A1C"/>
<path d="M29.3491 45.1943C29.3491 45.0329 29.2184 44.9022 29.0571 44.9022C28.8957 44.9022 28.765 45.0329 28.765 45.1943C28.765 45.3556 28.8957 45.4863 29.0571 45.4863C29.2184 45.4863 29.3491 45.3556 29.3491 45.1943Z" fill="#191A1C"/>
<path d="M36.9371 43.7341C36.9371 43.5727 36.8064 43.442 36.6451 43.442C36.4837 43.442 36.353 43.5727 36.353 43.7341C36.353 43.8954 36.4837 44.0261 36.6451 44.0261C36.8064 44.0261 36.9371 43.8954 36.9371 43.7341Z" fill="#191A1C"/>
<path d="M34.4081 45.1943C34.4081 45.0329 34.2774 44.9022 34.116 44.9022C33.9546 44.9022 33.824 45.0329 33.824 45.1943C33.824 45.3556 33.9546 45.4863 34.116 45.4863C34.2774 45.4863 34.4081 45.3556 34.4081 45.1943Z" fill="#191A1C"/>
<path d="M29.3491 30.5918C29.3491 30.4305 29.2184 30.2998 29.0571 30.2998C28.8957 30.2998 28.765 30.4305 28.765 30.5918C28.765 30.7532 28.8957 30.8839 29.0571 30.8839C29.2184 30.8839 29.3491 30.7532 29.3491 30.5918Z" fill="#191A1C"/>
<path d="M26.8195 32.0514C26.8195 31.8901 26.6889 31.7594 26.5275 31.7594C26.3661 31.7594 26.2355 31.8901 26.2355 32.0514C26.2355 32.2128 26.3661 32.3435 26.5275 32.3435C26.6889 32.3435 26.8195 32.2128 26.8195 32.0514Z" fill="#191A1C"/>
<path d="M36.9371 32.0514C36.9371 31.8901 36.8064 31.7594 36.6451 31.7594C36.4837 31.7594 36.353 31.8901 36.353 32.0514C36.353 32.2128 36.4837 32.3435 36.6451 32.3435C36.8064 32.3435 36.9371 32.2128 36.9371 32.0514Z" fill="#191A1C"/>
<path d="M34.4081 30.5918C34.4081 30.4305 34.2774 30.2998 34.116 30.2998C33.9546 30.2998 33.824 30.4305 33.824 30.5918C33.824 30.7532 33.9546 30.8839 34.116 30.8839C34.2774 30.8839 34.4081 30.7532 34.4081 30.5918Z" fill="#191A1C"/>
<path d="M39.4665 39.3533C39.4665 39.192 39.3359 39.0613 39.1745 39.0613C39.0131 39.0613 38.8824 39.192 38.8824 39.3533C38.8824 39.5147 39.0131 39.6454 39.1745 39.6454C39.3359 39.6454 39.4665 39.5147 39.4665 39.3533Z" fill="#191A1C"/>
<path d="M39.4665 36.4328C39.4665 36.2714 39.3359 36.1407 39.1745 36.1407C39.0131 36.1407 38.8824 36.2714 38.8824 36.4328C38.8824 36.5941 39.0131 36.7248 39.1745 36.7248C39.3359 36.7248 39.4665 36.5941 39.4665 36.4328Z" fill="#191A1C"/>
<path d="M19.5239 24.7502C19.5239 24.4277 19.2623 24.1661 18.9398 24.1661C18.6173 24.1661 18.3557 24.4277 18.3557 24.7502C18.3557 25.0727 18.6173 25.3343 18.9398 25.3343C19.2623 25.3343 19.5239 25.0727 19.5239 24.7502Z" fill="#191A1C"/>
<path d="M22.0534 20.3695C22.0534 20.047 21.7918 19.7854 21.4693 19.7854C21.1468 19.7854 20.8853 20.047 20.8853 20.3695C20.8853 20.692 21.1468 20.9536 21.4693 20.9536C21.7918 20.9536 22.0534 20.692 22.0534 20.3695Z" fill="#191A1C"/>
<path d="M27.1118 20.3695C27.1118 20.047 26.8502 19.7854 26.5277 19.7854C26.2052 19.7854 25.9436 20.047 25.9436 20.3695C25.9436 20.692 26.2052 20.9536 26.5277 20.9536C26.8502 20.9536 27.1118 20.692 27.1118 20.3695Z" fill="#191A1C"/>
<path d="M29.6413 24.7502C29.6413 24.4277 29.3797 24.1661 29.0572 24.1661C28.7347 24.1661 28.4731 24.4277 28.4731 24.7502C28.4731 25.0727 28.7347 25.3343 29.0572 25.3343C29.3797 25.3343 29.6413 25.0727 29.6413 24.7502Z" fill="#191A1C"/>
<path d="M27.1118 29.1309C27.1118 28.8085 26.8502 28.5469 26.5277 28.5469C26.2052 28.5469 25.9436 28.8085 25.9436 29.1309C25.9436 29.4534 26.2052 29.715 26.5277 29.715C26.8502 29.715 27.1118 29.4534 27.1118 29.1309Z" fill="#191A1C"/>
<path d="M22.0534 29.1309C22.0534 28.8085 21.7918 28.5469 21.4693 28.5469C21.1468 28.5469 20.8853 28.8085 20.8853 29.1309C20.8853 29.4534 21.1468 29.715 21.4693 29.715C21.7918 29.715 22.0534 29.4534 22.0534 29.1309Z" fill="#191A1C"/>
<path d="M24.8744 24.7502C24.8744 24.2664 24.4821 23.8741 23.9983 23.8741C23.5145 23.8741 23.1222 24.2664 23.1222 24.7502C23.1222 25.2341 23.5145 25.6263 23.9983 25.6263C24.4821 25.6263 24.8744 25.2341 24.8744 24.7502Z" fill="#191A1C"/>
<path d="M27.2579 23.2899C27.2579 22.8866 26.9311 22.5598 26.5277 22.5598C26.1244 22.5598 25.7976 22.8866 25.7976 23.2899C25.7976 23.6932 26.1244 24.0201 26.5277 24.0201C26.931 24.0201 27.2579 23.6933 27.2579 23.2899Z" fill="#191A1C"/>
<path d="M24.7283 21.8297C24.7283 21.4264 24.4015 21.0996 23.9982 21.0996C23.5949 21.0996 23.2681 21.4264 23.2681 21.8297C23.2681 22.2331 23.5949 22.5599 23.9982 22.5599C24.4015 22.5599 24.7283 22.2331 24.7283 21.8297Z" fill="#191A1C"/>
<path d="M22.1995 23.2899C22.1995 22.8866 21.8727 22.5598 21.4694 22.5598C21.0661 22.5598 20.7393 22.8866 20.7393 23.2899C20.7393 23.6932 21.0661 24.0201 21.4694 24.0201C21.8727 24.0201 22.1995 23.6933 22.1995 23.2899Z" fill="#191A1C"/>
<path d="M27.2579 26.2103C27.2579 25.8071 26.9311 25.4802 26.5277 25.4802C26.1244 25.4802 25.7976 25.807 25.7976 26.2103C25.7976 26.6136 26.1244 26.9405 26.5277 26.9405C26.931 26.9405 27.2579 26.6137 27.2579 26.2103Z" fill="#191A1C"/>
<path d="M24.7283 27.6707C24.7283 27.2674 24.4015 26.9406 23.9982 26.9406C23.5949 26.9406 23.2681 27.2674 23.2681 27.6707C23.2681 28.074 23.5949 28.4008 23.9982 28.4008C24.4015 28.4008 24.7283 28.074 24.7283 27.6707Z" fill="#191A1C"/>
<path d="M22.1995 26.2103C22.1995 25.8071 21.8727 25.4802 21.4694 25.4802C21.0661 25.4802 20.7393 25.807 20.7393 26.2103C20.7393 26.6136 21.0661 26.9405 21.4694 26.9405C21.8727 26.9405 22.1995 26.6137 22.1995 26.2103Z" fill="#191A1C"/>
<path d="M19.3777 27.6707C19.3777 27.4288 19.1816 27.2327 18.9396 27.2327C18.6977 27.2327 18.5016 27.4288 18.5016 27.6707C18.5016 27.9127 18.6977 28.1088 18.9396 28.1088C19.1816 28.1088 19.3777 27.9127 19.3777 27.6707Z" fill="#191A1C"/>
<path d="M24.4368 30.5917C24.4368 30.3498 24.2407 30.1537 23.9987 30.1537C23.7568 30.1537 23.5607 30.3498 23.5607 30.5917C23.5607 30.8337 23.7568 31.0298 23.9987 31.0298C24.2407 31.0298 24.4368 30.8337 24.4368 30.5917Z" fill="#191A1C"/>
<path d="M19.3777 21.8297C19.3777 21.5877 19.1816 21.3916 18.9396 21.3916C18.6977 21.3916 18.5016 21.5877 18.5016 21.8297C18.5016 22.0716 18.6977 22.2677 18.9396 22.2677C19.1816 22.2677 19.3777 22.0716 19.3777 21.8297Z" fill="#191A1C"/>
<path d="M24.4368 18.909C24.4368 18.6671 24.2407 18.4709 23.9987 18.4709C23.7568 18.4709 23.5607 18.6671 23.5607 18.909C23.5607 19.1509 23.7568 19.3471 23.9987 19.3471C24.2407 19.3471 24.4368 19.1509 24.4368 18.909Z" fill="#191A1C"/>
<path d="M29.4953 21.8297C29.4953 21.5877 29.2991 21.3916 29.0572 21.3916C28.8153 21.3916 28.6191 21.5877 28.6191 21.8297C28.6191 22.0716 28.8153 22.2677 29.0572 22.2677C29.2991 22.2677 29.4953 22.0716 29.4953 21.8297Z" fill="#191A1C"/>
<path d="M29.4953 27.6707C29.4953 27.4288 29.2991 27.2327 29.0572 27.2327C28.8153 27.2327 28.6191 27.4288 28.6191 27.6707C28.6191 27.9127 28.8153 28.1088 29.0572 28.1088C29.2991 28.1088 29.4953 27.9127 29.4953 27.6707Z" fill="#191A1C"/>
<path d="M16.7028 23.29C16.7028 23.1286 16.5722 22.9979 16.4108 22.9979C16.2494 22.9979 16.1188 23.1286 16.1188 23.29C16.1188 23.4513 16.2494 23.582 16.4108 23.582C16.5722 23.582 16.7028 23.4513 16.7028 23.29Z" fill="#191A1C"/>
<path d="M16.7028 26.2104C16.7028 26.049 16.5722 25.9183 16.4108 25.9183C16.2494 25.9183 16.1188 26.049 16.1188 26.2104C16.1188 26.3717 16.2494 26.5024 16.4108 26.5024C16.5722 26.5024 16.7028 26.3717 16.7028 26.2104Z" fill="#191A1C"/>
<path d="M21.7612 17.4485C21.7612 17.2872 21.6305 17.1565 21.4692 17.1565C21.3078 17.1565 21.1771 17.2872 21.1771 17.4485C21.1771 17.6099 21.3078 17.7406 21.4692 17.7406C21.6305 17.7406 21.7612 17.6099 21.7612 17.4485Z" fill="#191A1C"/>
<path d="M19.2317 18.909C19.2317 18.7476 19.101 18.6169 18.9396 18.6169C18.7783 18.6169 18.6476 18.7476 18.6476 18.909C18.6476 19.0703 18.7783 19.201 18.9396 19.201C19.101 19.201 19.2317 19.0703 19.2317 18.909Z" fill="#191A1C"/>
<path d="M29.3491 18.909C29.3491 18.7476 29.2184 18.6169 29.0571 18.6169C28.8957 18.6169 28.765 18.7476 28.765 18.909C28.765 19.0703 28.8957 19.201 29.0571 19.201C29.2184 19.201 29.3491 19.0703 29.3491 18.909Z" fill="#191A1C"/>
<path d="M26.8195 17.4485C26.8195 17.2872 26.6889 17.1565 26.5275 17.1565C26.3661 17.1565 26.2355 17.2872 26.2355 17.4485C26.2355 17.6099 26.3661 17.7406 26.5275 17.7406C26.6889 17.7406 26.8195 17.6099 26.8195 17.4485Z" fill="#191A1C"/>
<path d="M31.8786 26.2104C31.8786 26.049 31.748 25.9183 31.5866 25.9183C31.4252 25.9183 31.2946 26.049 31.2946 26.2104C31.2946 26.3717 31.4252 26.5024 31.5866 26.5024C31.748 26.5024 31.8786 26.3717 31.8786 26.2104Z" fill="#191A1C"/>
<path d="M31.8786 23.29C31.8786 23.1286 31.748 22.9979 31.5866 22.9979C31.4252 22.9979 31.2946 23.1286 31.2946 23.29C31.2946 23.4513 31.4252 23.582 31.5866 23.582C31.748 23.582 31.8786 23.4513 31.8786 23.29Z" fill="#191A1C"/>
<rect x="3.19995" y="2" width="14" height="14" rx="3.2" fill="#191A1C"/>
<path fill-rule="evenodd" clip-rule="evenodd" d="M14.4812 6.28434L9.14574 11.5642L6.65039 9.06882L7.21608 8.50314L9.1487 10.4358L13.9185 5.7157L14.4812 6.28434Z" fill="white"/>
</svg>
