<svg width="48" height="48" viewBox="0 0 48 48" fill="none" xmlns="http://www.w3.org/2000/svg">
<ellipse cx="24" cy="22.9334" rx="17.0667" ry="17.0667" fill="#FFED49"/>
<path d="M34.854 27.3529C35.9671 27.0999 38.5286 26.5572 39.5 28.5C40.4714 30.4428 38.4104 32.2728 37.2973 32.7281" stroke="#191A1C" stroke-width="1.5"/>
<path d="M12.6519 27.3528C11.5388 27.0998 9.22524 26.8759 8.25385 28.8186C7.28246 30.7614 9.09546 32.2727 10.2085 32.728" stroke="#191A1C" stroke-width="1.5"/>
<path d="M34.2942 41.2233C35.8335 41.7276 38.8786 42.2823 39.7658 41.1201C41.6956 38.5919 38.2738 36.4806 37.2975 35.1713" stroke="#191A1C" stroke-width="1.5"/>
<path d="M13.7059 41.2233C12.1666 41.7276 9.12153 42.2823 8.23437 41.1201C6.30457 38.5919 9.72635 36.4806 10.7026 35.1713" stroke="#191A1C" stroke-width="1.5"/>
<path d="M16.4223 24.6547C17.4893 24.0784 18.5007 23.3934 19.4656 22.6588C20.611 21.7869 22.0948 21 23.6108 21C24.9357 21 26.2361 21.601 27.3074 22.3346C28.3582 23.0541 29.4542 23.7214 30.61 24.2561C34.6799 26.1388 37.4228 29.685 37.4228 33.7496C37.4228 39.785 31.3748 44.6777 23.9143 44.6777C16.4538 44.6777 10.4059 39.785 10.4059 33.7496C10.4059 29.9562 12.795 26.6142 16.4223 24.6547Z" stroke="#191A1C" stroke-width="1.5"/>
<rect x="3.19995" y="2" width="14" height="14" rx="3.2" fill="#191A1C"/>
<path fill-rule="evenodd" clip-rule="evenodd" d="M14.4815 6.28422L9.14599 11.5641L6.65063 9.0687L7.21633 8.50302L9.14895 10.4357L13.9187 5.71558L14.4815 6.28422Z" fill="white"/>
<rect x="20.75" y="30.75" width="6.5" height="6.5" stroke="black" stroke-width="1.5"/>
</svg>
